HIERARCHY
ROOT Hips
{
	OFFSET 0.000000 0.000000 0.000000
	CHANNELS 6 Xposition Yposition Zposition Zrotation Yrotation Xrotation 
	JOINT LowerBack
	{
		OFFSET 0.000000 0.000000 0.000000
		CHANNELS 3 Zrotation Yrotation Xrotation
		JOINT Spine
		{
			OFFSET 0.028270 2.035590 -0.193380
			CHANNELS 3 Zrotation Yrotation Xrotation
			JOINT Spine1
			{
				OFFSET 0.056720 2.048850 -0.042750
				CHANNELS 3 Zrotation Yrotation Xrotation
				JOINT Neck
				{
					OFFSET 0.000000 0.000000 0.000000
					CHANNELS 3 Zrotation Yrotation Xrotation
					JOINT Neck1
					{
						OFFSET -0.054170 1.746240 0.172020
						CHANNELS 3 Zrotation Yrotation Xrotation
						JOINT Head
						{
							OFFSET 0.104070 1.761360 -0.123970
							CHANNELS 3 Zrotation Yrotation Xrotation
							End Site
							{
								OFFSET 0.000000 0.000000 0.000000
							}
						}
					}
				}
				JOINT LeftShoulder
				{
					OFFSET 0.000000 0.000000 0.000000
					CHANNELS 3 Zrotation Yrotation Xrotation
					JOINT LeftArm
					{
						OFFSET 3.362410 1.200890 -0.311210
						CHANNELS 3 Zrotation Yrotation Xrotation
						JOINT LeftForeArm
						{
							OFFSET 4.983000 -0.000000 -0.000000
							CHANNELS 3 Zrotation Yrotation Xrotation
							JOINT LeftHand
							{
								OFFSET 3.483560 -0.000000 -0.000000
								CHANNELS 3 Zrotation Yrotation Xrotation
								JOINT LeftFingerBase
								{
									OFFSET 0.000000 0.000000 0.000000
									CHANNELS 3 Zrotation Yrotation Xrotation
									JOINT LeftHandIndex1
									{
										OFFSET 0.715260 -0.000000 -0.000000
										CHANNELS 3 Zrotation Yrotation Xrotation
										End Site
										{
											OFFSET 0.000000 0.000000 0.000000
										}
									}
								}
								JOINT LThumb
								{
									OFFSET 0.000000 0.000000 0.000000
									CHANNELS 3 Zrotation Yrotation Xrotation
									End Site
									{
										OFFSET 0.000000 0.000000 0.000000
									}
								}
							}
						}
					}
				}
				JOINT RightShoulder
				{
					OFFSET 0.000000 0.000000 0.000000
					CHANNELS 3 Zrotation Yrotation Xrotation
					JOINT RightArm
					{
						OFFSET -3.136600 1.374050 -0.404650
						CHANNELS 3 Zrotation Yrotation Xrotation
						JOINT RightForeArm
						{
							OFFSET -5.241900 -0.000000 -0.000000
							CHANNELS 3 Zrotation Yrotation Xrotation
							JOINT RightHand
							{
								OFFSET -3.444170 -0.000000 -0.000000
								CHANNELS 3 Zrotation Yrotation Xrotation
								JOINT RightFingerBase
								{
									OFFSET 0.000000 0.000000 0.000000
									CHANNELS 3 Zrotation Yrotation Xrotation
									JOINT RightHandIndex1
									{
										OFFSET -0.622530 -0.000000 -0.000000
										CHANNELS 3 Zrotation Yrotation Xrotation
										End Site
										{
											OFFSET 0.000000 0.000000 0.000000
										}
									}
								}
								JOINT RThumb
								{
									OFFSET 0.000000 0.000000 0.000000
									CHANNELS 3 Zrotation Yrotation Xrotation
									End Site
									{
										OFFSET 0.000000 0.000000 0.000000
									}
								}
							}
						}
					}
				}
			}
		}
	}
}
}
MOTION
Frames: 6
Frame Time: 0.008333
5.082997 16.400163 1.615108 12.632101 63.037559 30.037125 -2.399836 -3.144639 -0.789767 -0.796089 -2.973659 -3.291268 -6.193543 -2.923572 -1.832830 9.365137 -12.620774 -8.808221 -3.673316 -0.263576 -0.376578 0.000000 0.000000 0.000000 4.136978 6.422181 -0.153940 -71.910449 2.905273 27.824929 -179.480431 -71.341229 179.927377 9.252283 -5.306865 -0.490435 -0.240242 0.658852 -0.000000 0.000000 0.000000 0.000000 0.000000 0.000000 0.000000 11.987856 -7.399889 -0.019531 74.213160 -3.499888 33.590398 179.840971 84.175203 179.970270 -5.015722 10.678357 -0.500924 0.083704 -0.590508 0.000000 0.000000 0.000000 0.000000 0.000000 0.000000 0.000000 
5.279673 16.508489 1.725443 12.005702 62.658688 29.344389 -2.052532 -3.283133 -0.862084 -0.682095 -3.135613 -3.287656 -6.039192 -3.084257 -1.749442 9.287863 -13.046195 -8.944317 -3.639765 -0.260302 -0.404665 0.000000 0.000000 0.000000 4.660144 6.382565 -0.250076 -72.400691 2.865980 27.566652 -179.465169 -70.125338 179.927031 9.041590 -5.340081 -0.483148 -0.236086 0.675872 -0.000000 0.000000 0.000000 0.000000 0.000000 0.000000 0.000000 11.681736 -7.870900 -0.034002 73.418737 -4.153364 33.916244 179.792821 83.239027 179.974965 -4.283284 10.813452 -0.432467 0.069887 -0.593602 0.000000 0.000000 0.000000 0.000000 0.000000 0.000000 0.000000 
5.477191 16.623010 1.841083 11.431565 62.264990 28.693056 -1.727025 -3.413856 -0.933967 -0.572715 -3.288307 -3.285110 -5.883294 -3.236689 -1.663358 9.204731 -13.456669 -9.079058 -3.598812 -0.256422 -0.432471 0.000000 0.000000 0.000000 5.097889 6.391789 -0.339403 -72.792689 2.843567 27.364893 -179.453822 -68.991810 179.926474 8.900157 -5.367424 -0.478851 -0.234164 0.690995 -0.000000 0.000000 0.000000 0.000000 0.000000 0.000000 0.000000 11.357356 -8.323463 -0.058953 72.703596 -4.778857 34.160693 179.749326 82.429516 179.979024 -3.645544 10.822845 -0.367725 0.057440 -0.593146 0.000000 0.000000 0.000000 0.000000 0.000000 0.000000 0.000000 
5.675363 16.742256 1.961421 10.906502 61.857508 28.077042 -1.419662 -3.534118 -1.001855 -0.467752 -3.429191 -3.284039 -5.727292 -3.378355 -1.579249 9.106829 -13.848221 -9.204053 -3.550664 -0.252040 -0.457711 0.000000 0.000000 0.000000 5.446755 6.428790 -0.421820 -73.095689 2.847456 27.212590 -179.446612 -67.955835 179.925827 8.806670 -5.394930 -0.477054 -0.233690 0.704279 -0.000000 0.000000 0.000000 0.000000 0.000000 0.000000 0.000000 11.006592 -8.754562 -0.092883 72.083391 -5.384735 34.315094 179.712920 81.767234 179.982337 -3.124591 10.694348 -0.310892 0.046947 -0.588523 0.000000 0.000000 0.000000 0.000000 0.000000 0.000000 0.000000 
5.874001 16.864535 2.085722 10.418849 61.438173 27.482976 -1.123456 -3.641375 -1.061425 -0.366260 -3.556058 -3.283954 -5.572342 -3.506893 -1.498937 8.987524 -14.215745 -9.314764 -3.495669 -0.247215 -0.479271 0.000000 0.000000 0.000000 5.711002 6.488864 -0.496520 -73.326565 2.870330 27.110611 -179.442148 -67.031037 179.925250 8.737088 -5.422157 -0.476264 -0.233916 0.715752 -0.000000 0.000000 0.000000 0.000000 0.000000 0.000000 0.000000 10.622360 -9.158489 -0.135414 71.565980 -5.981052 34.374030 179.685021 81.249358 179.984884 -2.723599 10.429229 -0.263767 0.038526 -0.579662 0.000000 0.000000 0.000000 0.000000 0.000000 0.000000 0.000000 
6.072831 16.988102 2.213051 9.950541 61.008733 26.888891 -0.829188 -3.732653 -1.104237 -0.266910 -3.666295 -3.283218 -5.419412 -3.619351 -1.422839 8.843438 -14.552593 -9.409770 -3.434639 -0.241996 -0.497044 0.000000 0.000000 0.000000 5.902647 6.578255 -0.562096 -73.508249 2.892622 27.063348 -179.437772 -66.226309 179.924910 8.668369 -5.442503 -0.474889 -0.234197 0.725403 -0.000000 0.000000 0.000000 0.000000 0.000000 0.000000 0.000000 10.200841 -9.526472 -0.186414 71.151511 -6.578532 34.332797 179.665932 80.852841 179.986726 -2.429016 10.043267 -0.226148 0.031826 -0.567070 0.000000 0.000000 0.000000 0.000000 0.000000 0.000000 0.000000 
